<?xml version="1.0" encoding="utf-8"?>
<!-- Svg Vector Icons : http://www.onlinewebfonts.com/icon -->
<!DOCTYPE svg PUBLIC "-//W3C//DTD SVG 1.1//EN" "http://www.w3.org/Graphics/SVG/1.1/DTD/svg11.dtd">
<svg version="1.1" xmlns="http://www.w3.org/2000/svg" xmlns:xlink="http://www.w3.org/1999/xlink" x="0px" y="0px" viewBox="0 0 1000 1000" enable-background="new 0 0 1000 1000" xml:space="preserve">
<metadata> Svg Vector Icons : http://www.onlinewebfonts.com/icon </metadata>
<g><path style='fill:#0073aa;' d="M249.6,316.3h62.6c0-101.5,84.1-183.8,187.8-183.8s187.8,82.3,187.8,183.8h62.6H813C813,147.1,672.9,10,500,10c-172.9,0-313,137.1-313,306.3H249.6z M813,377.5h62.2c34.8,0,63,27.9,63,61V929c0,33.7-28.2,61-63,61H124.8c-34.8,0-63-27.9-63-61V438.5c0-33.7,28.2-61,63-61H187v-61.2h125.2v61.2h375.6v-61.2H813L813,377.5z M550.1,669.6c26.3-16.3,43.8-45,43.8-77.7c0-50.7-42-91.9-93.9-91.9s-93.9,41.1-93.9,91.9c0,35.3,20.3,65.9,50.1,81.3v148.3c0,25.2,21,46.1,46.9,46.1c26.1,0,46.9-20.6,46.9-46.1V669.6z"/></g>
</svg>